<svg id="check" xmlns="http://www.w3.org/2000/svg" width="24" height="24" viewBox="0 0 24 24">
  <g id="Grupo_886" data-name="Grupo 886" transform="translate(-538 -70)">
    <g id="copy-blue" transform="translate(538 70)">
      <rect id="Boundary" width="24" height="24" fill="none"/>
    </g>
  </g>
  <g id="Grupo_888" data-name="Grupo 888" transform="translate(-556.71 -41.313)">
    <path id="Trazado_237" data-name="Trazado 237" d="M812.069,101.946a3.631,3.631,0,0,1,1.392-.746,8.873,8.873,0,0,0-10.286,1.634.621.621,0,0,0,.879.879,7.634,7.634,0,0,1,8.016-1.766" transform="translate(-240.729 -49.959)" fill="#fff"/>
    <path id="Trazado_238" data-name="Trazado 238" d="M747.874,4.286a.621.621,0,0,0,.879-.879,11.639,11.639,0,0,0-16.459,0,.621.621,0,0,0,.879.879,10.4,10.4,0,0,1,14.7,0" transform="translate(-171.814 47.502)" fill="#fff"/>
    <path id="Trazado_239" data-name="Trazado 239" d="M879.725,201.919a3.619,3.619,0,0,1,.295-1.209,6.107,6.107,0,0,0-1.667-.23,6.04,6.04,0,0,0-4.3,1.781.621.621,0,0,0,.879.879,4.806,4.806,0,0,1,3.421-1.417,4.857,4.857,0,0,1,1.372.2" transform="translate(-309.643 -147.42)" fill="#fff"/>
    <path id="Trazado_240" data-name="Trazado 240" d="M982.639,310.505a1.507,1.507,0,1,0,1.507,1.508,1.507,1.507,0,0,0-1.507-1.508" transform="translate(-413.929 -254.395)" fill="#fff"/>
    <path id="Trazado_241" data-name="Trazado 241" d="M1112.343,154.679a3.041,3.041,0,1,1-3.041-3.041,3.041,3.041,0,0,1,3.041,3.041" transform="translate(-535.59 -99.933)" fill="#2bbf2b"/>
    <path id="Trazado_242" data-name="Trazado 242" d="M1144.086,214.2a.43.43,0,0,0-.609,0l-1.935,1.927-.8-.81a.431.431,0,1,0-.61.61l1.116,1.116a.432.432,0,0,0,.61,0l2.232-2.232a.431.431,0,0,0,0-.61" transform="translate(-568.394 -160.641)"/>
  </g>
</svg>
