<?xml version="1.0" encoding="utf-8"?>
<!-- Generator: Adobe Illustrator 26.0.2, SVG Export Plug-In . SVG Version: 6.00 Build 0)  -->
<svg version="1.1" id="Capa_1" xmlns="http://www.w3.org/2000/svg" xmlns:xlink="http://www.w3.org/1999/xlink" x="0px" y="0px"
	 viewBox="0 0 1024 1024" style="enable-background:new 0 0 1024 1024;" xml:space="preserve">
<style type="text/css">
	.st0{fill:#EF0F2A;}
</style>
<path class="st0" d="M342.1,514.2c-1.8-143.8,113-259.6,254.3-261.9c0.2,0,0.6,0,0.8,0l161.7-2.1c142.6-1.9,260.1,112.6,262,255.1
	s-112.6,260.1-255.1,262l-89.3,1.2c-23.7,0.4-36.5-27.7-20.6-45.3c20.5-22.6,37.6-48.1,50.7-75.7c4.4-9.5,13.9-15.5,24.3-15.8
	l31.5-0.4c67.4-0.8,122.7-55.5,122.5-122.9c-0.2-67.7-55.5-122.3-123.2-122.1c-0.4,0-0.6,0-0.9,0l-161.6,2.1
	c-67.6,0.8-121.7,56.4-120.9,124c0,0,0,0,0,0.1c0.1,7.6,0.9,15.2,2.5,22.8c1.7,8.4-0.7,17.2-6.5,23.6
	c-12.7,14.1-30.7,22.3-49.7,22.4L374,582c-13.3,0.1-24.7-9.2-27.1-22.3C343.9,544.6,342.4,529.4,342.1,514.2L342.1,514.2z
	 M3.1,518.7c1.9,142.5,119.4,257,262,255.1l161.7-2.1c0.2,0,0.6,0,0.8,0c141.3-2.3,256-118.1,254.3-261.9
	c-0.2-15.2-1.8-30.3-4.6-45.3c-2.4-13-13.9-22.4-27.1-22.3l-50.6,0.7c-19,0.2-37,8.3-49.7,22.4c-5.8,6.4-8.2,15.2-6.5,23.6
	c1.5,7.5,2.3,15.1,2.5,22.8c0.9,67.6-53.1,123.2-120.8,124.1c0,0,0,0-0.1,0L263.3,638c-67.7,0.8-123.3-53.5-124.1-121.1
	c0-0.4,0-0.6,0-0.9c-0.2-67.4,55-122,122.5-122.9l31.5-0.4c10.4-0.1,19.9-6.3,24.3-15.8c13.2-27.6,30.2-53.1,50.7-75.7
	c15.9-17.5,3-45.6-20.6-45.3l-89.3,1.2C115.7,258.7,1.2,376.1,3.1,518.7L3.1,518.7z"/>
</svg>
