<?xml version="1.0" encoding="utf-8"?>
<!-- Generator: Adobe Illustrator 26.0.2, SVG Export Plug-In . SVG Version: 6.00 Build 0)  -->
<svg version="1.1" id="Capa_1" xmlns="http://www.w3.org/2000/svg" xmlns:xlink="http://www.w3.org/1999/xlink" x="0px" y="0px"
	 viewBox="0 0 22.2 11.3" style="enable-background:new 0 0 22.2 11.3;" xml:space="preserve">
<style type="text/css">
	.st0{fill:url(#SVGID_1_);}
	.st1{fill:url(#SVGID_00000062177958594984803650000005827340854308145050_);}
</style>
<g>
	
		<linearGradient id="SVGID_1_" gradientUnits="userSpaceOnUse" x1="-0.1256" y1="7.35" x2="22.3205" y2="7.35" gradientTransform="matrix(1 0 0 -1 0 13)">
		<stop  offset="1.944748e-07" style="stop-color:#CC130C"/>
		<stop  offset="0.9938" style="stop-color:#D6453F"/>
	</linearGradient>
	<path class="st0" d="M14.7,4.7c0-0.3-0.3-0.4-0.5-0.4H13c-0.5,0-1,0.3-1.2,0.7c0.1,0.5,0.1,1.1-0.2,1.7c-0.5,1-1.5,1.6-2.6,1.6H5.5
		c-1.4,0-2.7-1.1-2.7-2.5C2.7,4.3,3.9,3,5.5,3h0.8c0.2,0,0.4-0.1,0.5-0.3C7.1,2.1,7.5,1.5,8,1c0.3-0.3,0.1-0.9-0.4-0.9H5.7
		C2.6,0.1,0.1,2.5,0,5.5c-0.1,3.2,2.5,5.8,5.6,5.8h3.6c3,0,5.6-2.3,5.7-5.3C14.8,5.5,14.8,5.1,14.7,4.7z M16.7,0h-3.6
		c-3,0-5.6,2.3-5.7,5.3c0,0.4,0,0.8,0.1,1.2c0,0.3,0.3,0.4,0.5,0.4h1.2c0.5,0,1-0.3,1.2-0.7c-0.1-0.5-0.1-1.1,0.2-1.7
		c0.5-1,1.5-1.6,2.6-1.6h3.5c1.4,0,2.7,1.1,2.7,2.5c0.1,1.5-1.1,2.8-2.7,2.8h-0.8c-0.2,0-0.4,0.1-0.5,0.3c-0.3,0.6-0.7,1.2-1.2,1.7
		c-0.3,0.3-0.1,0.9,0.4,0.9h1.9c3.1,0,5.6-2.4,5.7-5.4C22.4,2.6,19.9,0,16.7,0z"/>
</g>
<g>
	
		<linearGradient id="SVGID_00000018918977937034134520000010302532104732365187_" gradientUnits="userSpaceOnUse" x1="-0.1256" y1="7.35" x2="22.3205" y2="7.35" gradientTransform="matrix(1 0 0 -1 0 13)">
		<stop  offset="1.944748e-07" style="stop-color:#CC130C"/>
		<stop  offset="0.9938" style="stop-color:#D6453F"/>
	</linearGradient>
	<path style="fill:url(#SVGID_00000018918977937034134520000010302532104732365187_);" d="M14.7,4.7c0-0.3-0.3-0.4-0.5-0.4H13
		c-0.5,0-1,0.3-1.2,0.7c0.1,0.5,0.1,1.1-0.2,1.7c-0.5,1-1.5,1.6-2.6,1.6H5.5c-1.4,0-2.7-1.1-2.7-2.5C2.7,4.3,3.9,3,5.5,3h0.8
		c0.2,0,0.4-0.1,0.5-0.3C7.1,2.1,7.5,1.5,8,1c0.3-0.3,0.1-0.9-0.4-0.9H5.7C2.6,0.1,0.1,2.5,0,5.5c-0.1,3.2,2.5,5.8,5.6,5.8h3.6
		c3,0,5.6-2.3,5.7-5.3C14.8,5.5,14.8,5.1,14.7,4.7z M16.7,0h-3.6c-3,0-5.6,2.3-5.7,5.3c0,0.4,0,0.8,0.1,1.2c0,0.3,0.3,0.4,0.5,0.4
		h1.2c0.5,0,1-0.3,1.2-0.7c-0.1-0.5-0.1-1.1,0.2-1.7c0.5-1,1.5-1.6,2.6-1.6h3.5c1.4,0,2.7,1.1,2.7,2.5c0.1,1.5-1.1,2.8-2.7,2.8h-0.8
		c-0.2,0-0.4,0.1-0.5,0.3c-0.3,0.6-0.7,1.2-1.2,1.7c-0.3,0.3-0.1,0.9,0.4,0.9h1.9c3.1,0,5.6-2.4,5.7-5.4C22.4,2.6,19.9,0,16.7,0z"/>
</g>
</svg>
