<?xml version="1.0" encoding="utf-8"?>
<!-- Generator: Adobe Illustrator 26.3.1, SVG Export Plug-In . SVG Version: 6.00 Build 0)  -->
<svg version="1.1" id="Capa_1" xmlns="http://www.w3.org/2000/svg" xmlns:xlink="http://www.w3.org/1999/xlink" x="0px" y="0px"
	 viewBox="0 0 640.3 68" style="enable-background:new 0 0 640.3 68;" xml:space="preserve">
<style type="text/css">
	.st0{fill:url(#SVGID_1_);}
	.st1{fill:#FFFFFF;}
</style>
<g>
	
		<linearGradient id="SVGID_1_" gradientUnits="userSpaceOnUse" x1="207.3978" y1="806.6998" x2="329.7048" y2="806.6998" gradientTransform="matrix(1 0 0 1 0 -773.1998)">
		<stop  offset="1.944748e-07" style="stop-color:#CC130C"/>
		<stop  offset="0.9938" style="stop-color:#D6453F"/>
	</linearGradient>
	<path class="st0" d="M289,33.2c0.2,17.3-13.6,31.2-30.6,31.5h-0.1L238.9,65c-17.1,0.2-31.3-13.5-31.5-30.7
		C207.2,17.2,220.9,3,238.1,2.8l10.7-0.1c2.8,0,4.4,3.3,2.5,5.4c-2.4,2.7-4.5,5.8-6.1,9.1c-0.5,1.1-1.7,1.9-2.9,1.9h-3.8
		c-8.1,0.1-14.7,6.7-14.7,14.8c0,8.2,6.8,14.8,14.9,14.7l19.4-0.3c8.2-0.1,14.6-6.8,14.5-14.9c0-1.1-0.2-2-0.3-2.7
		c-0.2-1,0.1-2.1,0.8-2.8c1.5-1.6,3.6-2.7,6-2.7l6.1-0.1c1.6,0,3,1.1,3.3,2.7C288.8,29.6,288.9,31.4,289,33.2L289,33.2z M329.7,32.7
		C329.5,15.6,315.3,1.8,298.2,2l-19.4,0.3h-0.1c-17,0.3-30.8,14.2-30.6,31.5c0,1.8,0.2,3.7,0.6,5.4c0.3,1.6,1.7,2.7,3.3,2.7l6.1-0.1
		c2.4,0,4.5-1.1,6-2.7c0.7-0.8,1-1.8,0.8-2.8c-0.1-0.7-0.3-1.7-0.3-2.7c-0.1-8.1,6.4-14.8,14.5-14.9l19.4-0.3
		c8.2-0.1,14.9,6.5,14.9,14.7c0,8.1-6.6,14.7-14.7,14.8h-3.8c-1.3,0-2.4,0.8-2.9,1.9c-1.6,3.4-3.7,6.4-6.1,9.1
		c-1.9,2.1-0.4,5.5,2.5,5.4l10.7-0.1C316.2,63.9,330,49.8,329.7,32.7L329.7,32.7z"/>
	<path class="st1" d="M104.1,65.6h36.1v-14h-19.6V40.7h18.5v-14h-18.5V16.1h19.6v-14h-36.1L104.1,65.6L104.1,65.6z M68.2,43.2
		l-12.5-41H42.6l-13.4,41l-11-41H1l18.9,63.4h16.7l12.2-36.7l11.5,36.7h16.8L97.4,2.2H80.2L68.2,43.2z M186,31.8
		c2.4-1,3.8-2.5,5.1-4.9c1.3-2.7,1.8-5,1.8-7.8c0-5.6-1.7-9.5-3.9-11.9c-3.9-4.3-9.3-4.9-13.9-4.9h-24.5v63.3H177
		c7.8,0,13.8-2.5,17.2-6c2.4-2.4,4.7-6.5,4.7-12.5c0-5-1.7-9.1-4.3-11.6C192.7,33.7,189.3,32.1,186,31.8z M167.1,14.8h3
		c3.2,0,5.2,0.9,6.3,1.9c1,1,1.5,2.7,1.5,4.3c0,1.4-0.5,3.1-1.5,4.2c-1.7,1.8-4.6,2-6.3,2h-3V14.8z M181,50.2
		c-1.8,2.1-5.6,2.6-10.2,2.6h-3.7V39.5h3.4c4.1,0,8.2,0.1,10.2,2.1c1,1,1.6,2.6,1.6,4.6C182.3,47.9,181.7,49.4,181,50.2z M465,41
		L434.6,2.2h-16.5v63.4h16.5V26.8l30.3,38.8h16.5V2.2h-16.5V41H465z M593.7,16.2h13.5v49.4h16.4V16.1h13.5v-14h-43.5L593.7,16.2
		L593.7,16.2z M388.4,41L358.1,2.2h-16.5v63.4h16.5V26.8l30.3,38.8h16.5V2.2h-16.5V41z M548,11c-5.7,5.8-9.6,14.4-9.6,23.4
		c0,8.3,3.4,16.9,9.6,23.1c5.2,5.1,13.5,9.5,24.5,9.5c4.1,0,7.7-0.8,14.3-3.1V44.4c-5.8,6.4-11.9,6.7-14.4,6.7
		c-4.7,0-9-1.8-11.8-4.4c-3.3-3.1-5.1-8-5.1-12.4c0-4.5,1.6-9.4,5.5-13c3-2.8,6.7-4.2,11.4-4.2c2.8,0,9,0.4,14.4,6.9V4.3
		C580,1.5,575,1.1,572,1.1C562.1,1.1,553.6,5.3,548,11z M494.7,65.6h36.1v-14h-19.6V40.7h18.5v-14h-18.5V16.1h19.6v-14h-36.1
		L494.7,65.6L494.7,65.6z"/>
</g>
</svg>
